<?xml version="1.0" encoding="UTF-8"?>
<svg xmlns="http://www.w3.org/2000/svg" xmlns:xlink="http://www.w3.org/1999/xlink" width="128.000mm" height="156.000mm" viewBox="57.000000 -990.000000 128.000000 156.000000">
    <circle transform="matrix(1,0,0,-1,62.766006,-908.541992)" style="stroke:#00e000;stroke-width:0.05mm;fill:none" r="2.5" cx="0" cy="0"/>
    <circle transform="matrix(1,0,0,-1,61.526993,-983.383972)" style="stroke:#00e000;stroke-width:0.05mm;fill:none" r="2.5" cx="0" cy="0"/>
    <circle transform="matrix(1,0,0,-1,180.286011,-984.807983)" style="stroke:#00e000;stroke-width:0.05mm;fill:none" r="2.5" cx="0" cy="0"/>
    <circle transform="matrix(1,0,0,-1,180.88501,-908.877991)" style="stroke:#00e000;stroke-width:0.05mm;fill:none" r="2.5" cx="0" cy="0"/>
    <circle transform="matrix(1,0,0,-1,157.251007,-899.710999)" style="stroke:#00e000;stroke-width:0.05mm;fill:none" r="2.5" cx="0" cy="0"/>
    <circle transform="matrix(1,0,0,-1,158.490997,-856.328003)" style="stroke:#00e000;stroke-width:0.05mm;fill:none" r="2.5" cx="0" cy="0"/>
    <circle transform="matrix(1,0,0,-1,123.25,-841.234009)" style="stroke:#00e000;stroke-width:0.05mm;fill:none" r="2.5" cx="0" cy="0"/>
    <circle transform="matrix(1,0,0,-1,168.238007,-941.997986)" style="stroke:#00e000;stroke-width:0.05mm;fill:none" r="2" cx="0" cy="0"/>
    <circle transform="matrix(1,0,0,-1,177.763,-942.002014)" style="stroke:#00e000;stroke-width:0.05mm;fill:none" r="2" cx="0" cy="0"/>
    <path transform="matrix(1,0,0,-1,-176,-409)" style="stroke:#00e000;stroke-width:0.05mm;fill:none" d="M233,581L361,581"/>
    <path transform="matrix(1,0,0,-0.999678,-176,-409.187012)" style="stroke:#00e000;stroke-width:0.05mm;fill:none" d="M361,581L361,495.293915"/>
    <path transform="matrix(1,0,0,-1,0,0)" style="stroke:#00e000;stroke-width:0.05mm;fill:none" d="M163,851.283142L163,904.303101L185,904.321533"/>
    <path transform="matrix(1,0,0,-1,-176,-409)" style="stroke:#00e000;stroke-width:0.05mm;fill:none" d="M339,442.28363L299.532776,425.230225"/>
    <path transform="matrix(1,0,0,-1,-176,-409)" style="stroke:#00e000;stroke-width:0.05mm;fill:none" d="M299.532776,425.230225L233,425"/>
    <path transform="matrix(1,0,0,-1,-176,-409)" style="stroke:#00e000;stroke-width:0.05mm;fill:none" d="M233,425L233,581"/>
    <circle transform="matrix(1,0,0,-1,146.658005,-860.096985)" style="stroke:#00e000;stroke-width:0.05mm;fill:none" r="2" cx="0" cy="0"/>
    <circle transform="matrix(1,0,0,-1,71.308899,-860.041992)" style="stroke:#00e000;stroke-width:0.05mm;fill:none" r="2" cx="0" cy="0"/>
    <circle transform="matrix(1,0,0,-1,71.277298,-978.005005)" style="stroke:#00e000;stroke-width:0.05mm;fill:none" r="2" cx="0" cy="0"/>
    <circle transform="matrix(1,0,0,-1,146.690994,-977.958008)" style="stroke:#00e000;stroke-width:0.05mm;fill:none" r="2" cx="0" cy="0"/>
</svg>
